:version 1.10
:name ASF
:units
  mass 1
  length 1
  angle deg
:documentation
  ASF file generated by Kaydara
:root
  axis xyz
  order  tx ty tz rx ry rz
  position 0 0 0
  orientation 0 0 0
:bonedata
  begin
    id 1
    name RightUpLegDummy
    direction -0.65628 -0.754516 0.00165102
    length 4.76918
    axis 0 0 0 xyz
  end
  begin
    id 2
    name RightUpLeg
    direction -0.145584 -0.923362 0.355256
    length 17.9961
    axis -24.7611 -13.1006 1.78531 xyz
    dof rx ry rz
  end
  begin
    id 3
    name RightLeg
    direction 0.263379 0.172355 -0.949171
    length 13.3386
    axis 89.6202 -21.1929 12.3855 xyz
    dof rx ry rz
  end
  begin
    id 4
    name RightFoot
    direction 0.224283 -0.968777 -0.105675
    length 5.86697
    axis 56.995 -39.6905 17.3365 xyz
    dof rx ry rz
  end
  begin
    id 5
    name RightToes
    direction -0.0806345 -0.9037 0.420506
    length 4.75197
    axis 146.825 -39.7828 17.6019 xyz
    dof rx ry rz
  end
  begin
    id 6
    name SpineDummy
    direction -3.39852e-014 1 9.33296e-014
    length 8.13779
    axis 0 0 0 xyz
  end
  begin
    id 7
    name Spine
    direction -0.156609 0.733703 0.661176
    length 7.14978
    axis 41.2365 5.68757 17.0844 xyz
    dof rx ry rz
  end
  begin
    id 8
    name Spine1
    direction 0 0 0
    length 0
    axis 42.8809 47.8308 -3.36039 xyz
    dof rx ry rz
  end
  begin
    id 9
    name HEadDummy
    direction 0.546431 0.701947 0.456819
    length 3.55512
    axis 42.8809 47.8308 -3.36039 xyz
  end
  begin
    id 10
    name HEad
    direction 0.23444 0.828559 0.508457
    length 7.35827
    axis 51.1864 49.2662 27.4903 xyz
    dof rx ry rz
  end
  begin
    id 11
    name LeftShoulder1Dummy
    direction 0.431183 0.475873 -0.766568
    length 2.49352
    axis 42.8809 47.8308 -3.36039 xyz
  end
  begin
    id 12
    name LeftShoulder1
    direction 0.268187 -0.383402 -0.883786
    length 4.48604
    axis -119.517 0.106469 35.1736 xyz
    dof rx ry rz
  end
  begin
    id 13
    name LeftArm
    direction 0.380567 -0.703221 -0.600541
    length 10.1142
    axis -5.41825 36.2925 7.8293 xyz
    dof rx ry rz
  end
  begin
    id 14
    name LeftForeArm
    direction 0.541071 -0.732356 -0.413396
    length 9.39839
    axis 4.65387 33.7604 7.81644 xyz
    dof rx ry rz
  end
  begin
    id 15
    name LeftHand
    direction 0.847511 -0.389379 -0.360707
    length 3.66142
    axis 7.65593 21.1436 -24.6758 xyz
    dof rx ry rz
  end
  begin
    id 16
    name RightShoulderDummy
    direction -0.692546 0.541855 0.476208
    length 2.49352
    axis 42.8809 47.8308 -3.36039 xyz
  end
  begin
    id 17
    name RightShoulder
    direction -0.870808 -0.316653 0.376065
    length 4.48602
    axis 141.571 51.133 -100.254 xyz
    dof rx ry rz
  end
  begin
    id 18
    name RightArm
    direction 0.366897 -0.87275 0.322015
    length 10.1142
    axis 92.3258 71.2036 138.917 xyz
    dof rx ry rz
  end
  begin
    id 19
    name RightForeArm
    direction 0.702487 -0.694568 0.155197
    length 9.39835
    axis 153.863 41.5092 -176.604 xyz
    dof rx ry rz
  end
  begin
    id 20
    name RightHand
    direction 0.79502 -0.601276 0.0800636
    length 3.66142
    axis 154.247 4.59222 142.9 xyz
    dof rx ry rz
  end
  begin
    id 21
    name LeftUpLegDummy
    direction 0.65628 -0.754516 0.00165102
    length 4.76919
    axis 0 0 0 xyz
  end
  begin
    id 22
    name LeftUpLeg
    direction -0.1277 -0.689368 0.713067
    length 17.9961
    axis -48.3385 -17.8675 0.791927 xyz
    dof rx ry rz
  end
  begin
    id 23
    name LeftLeg
    direction 0.109849 -0.991246 -0.0732378
    length 13.3386
    axis -2.05791 -7.30784 1.72042 xyz
    dof rx ry rz
  end
  begin
    id 24
    name LeftFoot
    direction 0.0448355 -0.272614 0.961078
    length 5.86697
    axis -18.7733 -7.89606 10.2113 xyz
    dof rx ry rz
  end
  begin
    id 25
    name LeftToes
    direction -0.18506 0.293668 0.937823
    length 4.75197
    axis 71.2267 -7.89606 10.2113 xyz
    dof rx ry rz
  end
:hierarchy
  begin
    root RightUpLegDummy SpineDummy LeftUpLegDummy
    RightUpLegDummy RightUpLeg
    RightUpLeg RightLeg
    RightLeg RightFoot
    RightFoot RightToes
    SpineDummy Spine
    Spine Spine1
    Spine1 HEadDummy LeftShoulder1Dummy RightShoulderDummy
    HEadDummy HEad
    LeftShoulder1Dummy LeftShoulder1
    LeftShoulder1 LeftArm
    LeftArm LeftForeArm
    LeftForeArm LeftHand
    RightShoulderDummy RightShoulder
    RightShoulder RightArm
    RightArm RightForeArm
    RightForeArm RightHand
    LeftUpLegDummy LeftUpLeg
    LeftUpLeg LeftLeg
    LeftLeg LeftFoot
    LeftFoot LeftToes
  end

:SAMPLES-PER-SECOND 30
:FULLY-SPECIFIED
:DEGREES
467
root  -19.9308 17.5802 -3.47041 43.0711 -29.3372 -134.532
RightUpLeg  -26.9421 -3.45361 -50.1273
RightLeg  -108.905 -14.6776 1.7129
RightFoot  43.8219 11.4857 -25.6894
RightToes  -1.27222e-014 -6.36111e-015 6.36111e-015
Spine  -14.9918 -7.48014 2.76399
Spine1  14.069 -12.2984 52.3221
HEad  33.7211 -18.8005 -12.0892
LeftShoulder1  6.36111e-015 -1.33558e-015 6.49777e-015
LeftArm  49.7238 19.4183 4.79061
LeftForeArm  35.2428 -28.7557 -26.713
LeftHand  19.3133 24.6022 26.8281
RightShoulder  -4.77083e-015 -6.36111e-015 -3.18055e-015
RightArm  101.013 -23.9456 -83.7902
RightForeArm  -34.5343 9.83407 -26.3468
RightHand  13.9018 -10.666 -47.5186
LeftUpLeg  11.4094 12.2547 60.6581
LeftLeg  -22.9674 13.4226 -6.9653
LeftFoot  -10.207 0.228688 -0.870774
LeftToes  9.54166e-015 -1.91609e-011 -2.3878e-011
468
root  -21.5772 17.3381 -3.233 38.7727 -40.7584 -141.561
RightUpLeg  -20.3242 8.55749 -53.5064
RightLeg  -106.298 -10.7673 11.2051
RightFoot  43.4124 11.3732 -25.5804
RightToes  -1.27222e-014 -6.36111e-015 6.36111e-015
Spine  -12.2793 -10.2221 -2.19496
Spine1  15.5418 -13.3651 56.4797
HEad  37.8431 -18.1779 -15.4623
LeftShoulder1  6.36111e-015 -1.33558e-015 6.49777e-015
LeftArm  59.1251 25.8376 1.93408
LeftForeArm  33.4127 -27.3228 -27.1835
LeftHand  19.174 25.1015 25.6738
RightShoulder  -4.77083e-015 -6.36111e-015 -3.18055e-015
RightArm  101.171 -32.7611 -73.4178
RightForeArm  -17.7109 -11.2428 -8.0761
RightHand  14.0632 -12.9627 -43.5425
LeftUpLeg  4.85622 10.2051 63.8099
LeftLeg  -23.6035 19.8945 -8.7742
LeftFoot  -10.7318 0.576464 -2.65686
LeftToes  9.54166e-015 -1.91609e-011 -2.3878e-011
469
root  -23.0813 16.7381 -2.79042 39.2199 -52.7376 -150.336
RightUpLeg  -13.7432 14.3127 -51.6912
RightLeg  -103.361 -9.8099 18.2821
RightFoot  44.6061 8.8864 -23.0388
RightToes  -1.27222e-014 -6.36111e-015 6.36111e-015
Spine  -8.6774 -11.407 -6.8715
Spine1  15.5086 -13.3299 60.89
HEad  40.9865 -19.0757 -19.8528
LeftShoulder1  6.36111e-015 -1.33558e-015 6.49777e-015
LeftArm  65.5428 32.8195 -3.18609
LeftForeArm  31.3154 -27.0709 -27.0159
LeftHand  16.9696 23.9943 21.9075
RightShoulder  -4.77083e-015 -6.36111e-015 -3.18055e-015
RightArm  100.796 -33.824 -75.2702
RightForeArm  -3.68506 -14.7359 6.69328
RightHand  11.4823 -12.2946 -36.2701
LeftUpLeg  -3.18083 13.3157 64.7555
LeftLeg  -23.1511 18.8352 -8.2995
LeftFoot  -11.299 1.34142 -6.72022
LeftToes  9.54166e-015 -1.91609e-011 -2.3878e-011
470
root  -24.5499 15.9629 -2.15873 51.0045 -65.6203 -166.856
RightUpLeg  -10.9362 7.38025 -47.6784
RightLeg  -95.8394 -12.8251 15.8201
RightFoot  43.4008 5.64337 -19.6787
RightToes  -1.27222e-014 -6.36111e-015 6.36111e-015
Spine  -6.43351 -11.8496 -10.6114
Spine1  15.9163 -12.8389 62.0162
HEad  41.6922 -17.7739 -23.3679
LeftShoulder1  6.36111e-015 -1.33558e-015 6.49777e-015
LeftArm  69.2796 39.9363 -7.16249
LeftForeArm  29.9979 -28.2295 -26.4367
LeftHand  14.1858 20.9055 19.3789
RightShoulder  -4.77083e-015 -6.36111e-015 -3.18055e-015
RightArm  104.65 -36.9086 -77.6423
RightForeArm  1.68825 -10.153 9.47745
RightHand  10.7605 -9.30175 -39.3459
LeftUpLeg  -11.1945 17.0629 62.8422
LeftLeg  -23.1415 12.8986 -6.89926
LeftFoot  -11.8219 1.57347 -8.12296
LeftToes  9.54166e-015 -1.91609e-011 -2.3878e-011
